grf
version=1
nRows=15
nColumns=37
inDegrees=no
endheader
time	ground_force_1_vx	ground_force_1_vy	ground_force_1_vz	ground_force_1_px	ground_force_1_py	ground_force_1_pz	ground_moment_1_mx	ground_moment_1_my	ground_moment_1_mz	ground_force_2_vx	ground_force_2_vy	ground_force_2_vz	ground_force_2_px	ground_force_2_py	ground_force_2_pz	ground_moment_2_mx	ground_moment_2_my	ground_moment_2_mz	ground_force_3_vx	ground_force_3_vy	ground_force_3_vz	ground_force_3_px	ground_force_3_py	ground_force_3_pz	ground_moment_3_mx	ground_moment_3_my	ground_moment_3_mz	ground_force_4_vx	ground_force_4_vy	ground_force_4_vz	ground_force_4_px	ground_force_4_py	ground_force_4_pz	ground_moment_4_mx	ground_moment_4_my	ground_moment_4_mz
      5.15000000	      0.00000000	     -0.00000000	      0.00000000	      0.00000000	      0.00000000	      0.00000000	      0.00000000	      0.00000000	      0.00000000	     -6.20810270	     -7.56235933	   -757.58905029	   -262.53318702	  -1051.43096760	      0.00000000	      0.00000000	      0.00000000	    436.68020552	      0.00000000	     -0.00000000	      0.00000000	      0.00000000	      0.00000000	      0.00000000	      0.00000000	      0.00000000	      0.00000000	    -35.20910885	     16.08569834	     76.48916626	    601.75657934	   -558.63686201	      0.00000000	      0.00000000	     -0.00000000	   -147.94683147
      5.16000000	      0.00000000	     -0.00000000	      0.00000000	      0.00000000	      0.00000000	      0.00000000	      0.00000000	      0.00000000	      0.00000000	     -7.22139692	     -7.09787989	   -757.14404297	   -261.73895401	  -1051.23725309	      0.00000000	     -0.00000000	     -0.00000000	    526.93000715	      0.00000000	     -0.00000000	      0.00000000	      0.00000000	      0.00000000	      0.00000000	      0.00000000	      0.00000000	      0.00000000	    -34.55479670	     16.35050885	     75.37992096	    608.49994644	   -565.44202592	      0.00000000	      0.00000000	      0.00000000	   -146.32076858
      5.17000000	      0.00000000	     -0.00000000	      0.00000000	      0.00000000	      0.00000000	      0.00000000	      0.00000000	      0.00000000	      0.00000000	     -8.36692429	     -7.78693628	   -756.93933105	   -261.63738792	  -1050.07016896	      0.00000000	     -0.00000000	      0.00000000	    546.88572923	      0.00000000	     -0.00000000	      0.00000000	      0.00000000	      0.00000000	      0.00000000	      0.00000000	      0.00000000	      0.00000000	    -34.98308803	     16.18482705	     75.78672791	    603.47003849	   -565.35622357	      0.00000000	      0.00000000	     -0.00000000	    -74.48543428
      5.18000000	      0.00000000	     -0.00000000	      0.00000000	      0.00000000	      0.00000000	      0.00000000	      0.00000000	      0.00000000	      0.00000000	     -9.25405884	     -7.19098663	   -760.69299316	   -261.28828228	  -1050.29545059	      0.00000000	      0.00000000	      0.00000000	    396.43326175	      0.00000000	     -0.00000000	      0.00000000	      0.00000000	      0.00000000	      0.00000000	      0.00000000	      0.00000000	      0.00000000	    -35.23199703	     16.19944499	     76.85852051	    601.89539288	   -563.73158363	      0.00000000	      0.00000000	     -0.00000000	    -39.25124537
      5.19000000	      0.00000000	     -0.00000000	      0.00000000	      0.00000000	      0.00000000	      0.00000000	      0.00000000	      0.00000000	      0.00000000	     -9.63957787	     -6.24396610	   -762.29656982	   -261.53116606	  -1050.37944798	      0.00000000	      0.00000000	      0.00000000	    403.73130364	      0.00000000	     -0.00000000	      0.00000000	      0.00000000	      0.00000000	      0.00000000	      0.00000000	      0.00000000	      0.00000000	    -34.79439022	     16.18457145	     75.12319946	    605.21353426	   -562.25382159	      0.00000000	      0.00000000	     -0.00000000	   -239.94471627
      5.20000000	      0.00000000	     -0.00000000	      0.00000000	      0.00000000	      0.00000000	      0.00000000	      0.00000000	      0.00000000	      0.00000000	     -9.20828152	     -5.26358891	   -765.96966553	   -261.68279793	  -1052.07291655	      0.00000000	      0.00000000	      0.00000000	    338.84468999	      0.00000000	     -0.00000000	      0.00000000	      0.00000000	      0.00000000	      0.00000000	      0.00000000	      0.00000000	      0.00000000	    -35.16219192	     15.75477049	     76.46824646	    600.18792722	   -560.00353419	      0.00000000	      0.00000000	     -0.00000000	    -59.43672178
      5.21000000	      0.00000000	     -0.00000000	      0.00000000	      0.00000000	      0.00000000	      0.00000000	      0.00000000	      0.00000000	      0.00000000	     -9.19861031	     -4.43668318	   -763.90856934	   -262.32985716	  -1051.72326496	      0.00000000	      0.00000000	      0.00000000	    395.56981458	      0.00000000	     -0.00000000	      0.00000000	      0.00000000	      0.00000000	      0.00000000	      0.00000000	      0.00000000	      0.00000000	    -34.80442287	     16.19453734	     74.42176819	    609.48344711	   -564.89874548	      0.00000000	      0.00000000	     -0.00000000	    -81.45406177
      5.22000000	      0.00000000	     -0.00000000	      0.00000000	      0.00000000	      0.00000000	      0.00000000	      0.00000000	      0.00000000	      0.00000000	     -9.29804611	     -3.11453009	   -758.00396729	   -262.46014196	  -1050.38906512	      0.00000000	      0.00000000	      0.00000000	    218.22092323	      0.00000000	     -0.00000000	      0.00000000	      0.00000000	      0.00000000	      0.00000000	      0.00000000	      0.00000000	      0.00000000	    -35.07802061	     15.95571157	     76.13640594	    605.09826793	   -562.17654272	      0.00000000	      0.00000000	      0.00000000	   -141.12199583
      5.23000000	      0.00000000	     -0.00000000	      0.00000000	      0.00000000	      0.00000000	      0.00000000	      0.00000000	      0.00000000	      0.00000000	     -8.11305428	     -1.34715128	   -755.15936279	   -262.69301277	  -1051.39124121	      0.00000000	      0.00000000	      0.00000000	    296.51554581	      0.00000000	     -0.00000000	      0.00000000	      0.00000000	      0.00000000	      0.00000000	      0.00000000	      0.00000000	      0.00000000	    -34.96783309	     15.86612816	     76.21799469	    604.51894831	   -564.52072594	      0.00000000	      0.00000000	     -0.00000000	    -59.74044164
      5.24000000	      0.00000000	     -0.00000000	      0.00000000	      0.00000000	      0.00000000	      0.00000000	      0.00000000	      0.00000000	      0.00000000	     -7.42000484	     -0.28808290	   -751.27526855	   -264.01262632	  -1051.13791458	      0.00000000	      0.00000000	      0.00000000	    503.11090006	      0.00000000	     -0.00000000	      0.00000000	      0.00000000	      0.00000000	      0.00000000	      0.00000000	      0.00000000	      0.00000000	    -34.98884442	     16.10988923	     76.13586426	    603.57824747	   -563.06002722	      0.00000000	      0.00000000	     -0.00000000	    -30.51777321
      5.25000000	      0.00000000	     -0.00000000	      0.00000000	      0.00000000	      0.00000000	      0.00000000	      0.00000000	      0.00000000	      0.00000000	     -6.72222376	      0.11006850	   -746.62243652	   -264.84224546	  -1050.85442318	      0.00000000	      0.00000000	      0.00000000	    820.14759708	      0.00000000	     -0.00000000	      0.00000000	      0.00000000	      0.00000000	      0.00000000	      0.00000000	      0.00000000	      0.00000000	    -34.70988324	     16.09918516	     74.79480743	    608.64610015	   -565.47542193	      0.00000000	      0.00000000	     -0.00000000	   -165.36886891
      5.26000000	      0.00000000	     -0.00000000	      0.00000000	      0.00000000	      0.00000000	      0.00000000	      0.00000000	      0.00000000	      0.00000000	     -5.58401823	      0.15709329	   -741.78271484	   -266.66131726	  -1050.39139702	      0.00000000	      0.00000000	     -0.00000000	    861.72056506	      0.00000000	     -0.00000000	      0.00000000	      0.00000000	      0.00000000	      0.00000000	      0.00000000	      0.00000000	      0.00000000	    -35.13012931	     16.62262270	     75.69954681	    603.92756073	   -565.27068350	      0.00000000	      0.00000000	     -0.00000000	   -202.38728440
      5.27000000	      0.00000000	     -0.00000000	      0.00000000	      0.00000000	      0.00000000	      0.00000000	      0.00000000	      0.00000000	      0.00000000	     -4.33045244	     -0.16215923	   -740.59704590	   -268.10416532	  -1049.51357852	      0.00000000	      0.00000000	      0.00000000	    807.72093185	      0.00000000	     -0.00000000	      0.00000000	      0.00000000	      0.00000000	      0.00000000	      0.00000000	      0.00000000	      0.00000000	    -34.97277689	     16.36344262	     76.13509369	    600.85454244	   -563.55986080	      0.00000000	      0.00000000	     -0.00000000	    -99.21462317
      5.28000000	      0.00000000	     -0.00000000	      0.00000000	      0.00000000	      0.00000000	      0.00000000	      0.00000000	      0.00000000	      0.00000000	     -5.09587097	     -0.61305052	   -740.37274170	   -268.75995030	  -1049.75617214	      0.00000000	      0.00000000	      0.00000000	    968.59892596	      0.00000000	     -0.00000000	      0.00000000	      0.00000000	      0.00000000	      0.00000000	      0.00000000	      0.00000000	      0.00000000	    -34.79379515	     15.94137305	     76.11307526	    605.70498680	   -561.37301183	      0.00000000	      0.00000000	      0.00000000	   -203.93024390
      5.29000000	      0.00000000	     -0.00000000	      0.00000000	      0.00000000	      0.00000000	      0.00000000	      0.00000000	      0.00000000	      0.00000000	     -6.47934437	     -0.96943676	   -737.98895264	   -269.06612315	  -1048.85703285	      0.00000000	      0.00000000	      0.00000000	    968.07256589	      0.00000000	     -0.00000000	      0.00000000	      0.00000000	      0.00000000	      0.00000000	      0.00000000	      0.00000000	      0.00000000	    -34.97826243	     16.34622689	     75.05968475	    608.60819711	   -566.48752149	      0.00000000	      0.00000000	     -0.00000000	   -141.81353415
